<svg width="132" height="40" viewBox="0 0 132 40" fill="none" xmlns="http://www.w3.org/2000/svg">
<path d="M0 8C0 3.58172 3.58172 0 8 0H124C128.418 0 132 3.58172 132 8V32C132 36.4183 128.418 40 124 40H8C3.58172 40 0 36.4183 0 32V8Z" fill="url(#paint0_linear_13379_58766)"/>
<path d="M24.728 14.636H37.286V16.33H24.728V14.636ZM29.81 16.148H31.616V26.718H29.81V16.148ZM30.762 19.55L31.91 18.206C32.2927 18.3927 32.7033 18.6073 33.142 18.85C33.59 19.0833 34.0333 19.3307 34.472 19.592C34.9107 19.8533 35.326 20.11 35.718 20.362C36.11 20.6047 36.4367 20.838 36.698 21.062L35.452 22.602C35.2093 22.378 34.9013 22.1353 34.528 21.874C34.164 21.6033 33.7627 21.3327 33.324 21.062C32.8947 20.7913 32.4607 20.5253 32.022 20.264C31.5833 19.9933 31.1633 19.7553 30.762 19.55ZM40.436 22.224H49.774V26.788H48.066V23.288H42.06V26.802H40.436V22.224ZM41.29 23.806H48.668V24.772H41.29V23.806ZM41.29 25.318H48.668V26.382H41.29V25.318ZM44.09 13.558H45.784V21.384H44.09V13.558ZM40.128 14.44H49.704V18.612H39.974V17.618H48.038V15.434H40.128V14.44ZM38.686 15.938H51.314V17.1H38.686V15.938ZM39.666 19.102H50.278V20.11H39.666V19.102ZM38.672 20.628H51.314V21.79H38.672V20.628ZM54.296 15.448C55.3227 15.5693 56.2653 15.644 57.124 15.672C57.992 15.6907 58.7947 15.672 59.532 15.616C60.176 15.56 60.792 15.476 61.38 15.364C61.968 15.252 62.5467 15.1073 63.116 14.93L63.34 16.54C62.836 16.68 62.29 16.8013 61.702 16.904C61.114 17.0067 60.512 17.086 59.896 17.142C59.1773 17.198 58.3467 17.226 57.404 17.226C56.4707 17.2167 55.4673 17.1607 54.394 17.058L54.296 15.448ZM54.044 18.388C54.8933 18.4627 55.7053 18.514 56.48 18.542C57.2547 18.57 57.9827 18.57 58.664 18.542C59.3453 18.514 59.966 18.4767 60.526 18.43C61.282 18.3647 61.9307 18.2713 62.472 18.15C63.0133 18.0193 63.4847 17.898 63.886 17.786L64.166 19.438C63.746 19.5407 63.284 19.6387 62.78 19.732C62.276 19.8253 61.7393 19.9047 61.17 19.97C60.5727 20.026 59.8867 20.0727 59.112 20.11C58.3467 20.138 57.5393 20.1473 56.69 20.138C55.8407 20.1193 54.9913 20.0867 54.142 20.04L54.044 18.388ZM58.72 15.84C58.6547 15.5787 58.58 15.322 58.496 15.07C58.412 14.8087 58.3187 14.5427 58.216 14.272L60.106 14.062C60.162 14.5007 60.232 14.9347 60.316 15.364C60.4093 15.784 60.512 16.19 60.624 16.582C60.7453 16.974 60.862 17.352 60.974 17.716C61.086 18.0333 61.2307 18.3973 61.408 18.808C61.5947 19.2093 61.7953 19.6153 62.01 20.026C62.2247 20.4273 62.4393 20.7913 62.654 21.118C62.7473 21.2487 62.8407 21.3747 62.934 21.496C63.0367 21.608 63.1533 21.72 63.284 21.832L62.43 23.12C62.1687 23.064 61.842 23.008 61.45 22.952C61.0673 22.896 60.666 22.8447 60.246 22.798C59.8353 22.7513 59.4573 22.7093 59.112 22.672L59.252 21.342C59.5413 21.37 59.854 21.398 60.19 21.426C60.5353 21.454 60.8107 21.482 61.016 21.51C60.6427 20.8847 60.3207 20.2733 60.05 19.676C59.7887 19.0787 59.5693 18.5233 59.392 18.01C59.28 17.6833 59.1867 17.4033 59.112 17.17C59.0373 16.9273 58.9673 16.7033 58.902 16.498C58.846 16.2833 58.7853 16.064 58.72 15.84ZM56.732 21.636C56.564 21.8693 56.4193 22.112 56.298 22.364C56.1767 22.6067 56.116 22.882 56.116 23.19C56.116 23.7033 56.354 24.0767 56.83 24.31C57.3153 24.534 58.02 24.646 58.944 24.646C59.6067 24.646 60.232 24.618 60.82 24.562C61.4173 24.506 61.9633 24.4313 62.458 24.338L62.36 26.116C61.8747 26.2 61.3287 26.2653 60.722 26.312C60.1153 26.3587 59.5273 26.382 58.958 26.382C58.0247 26.382 57.2173 26.284 56.536 26.088C55.864 25.892 55.3413 25.5887 54.968 25.178C54.5947 24.758 54.4033 24.2167 54.394 23.554C54.3847 23.106 54.4407 22.7047 54.562 22.35C54.6927 21.986 54.8373 21.636 54.996 21.3L56.732 21.636ZM72.804 14.272C72.7573 14.524 72.6827 14.8507 72.58 15.252C72.4773 15.6533 72.328 16.106 72.132 16.61C71.9827 16.9553 71.81 17.3147 71.614 17.688C71.4273 18.052 71.236 18.3787 71.04 18.668C71.1613 18.612 71.3153 18.5653 71.502 18.528C71.6887 18.4813 71.88 18.4487 72.076 18.43C72.2813 18.402 72.4633 18.388 72.622 18.388C73.21 18.388 73.6953 18.556 74.078 18.892C74.47 19.228 74.666 19.7273 74.666 20.39C74.666 20.5767 74.666 20.8053 74.666 21.076C74.6753 21.3467 74.6847 21.6313 74.694 21.93C74.7033 22.2193 74.7127 22.504 74.722 22.784C74.7313 23.064 74.736 23.316 74.736 23.54H73.056C73.0747 23.3813 73.084 23.1947 73.084 22.98C73.0933 22.756 73.098 22.5227 73.098 22.28C73.1073 22.0373 73.112 21.804 73.112 21.58C73.1213 21.3467 73.126 21.1367 73.126 20.95C73.126 20.502 73.0047 20.194 72.762 20.026C72.5287 19.8487 72.2673 19.76 71.978 19.76C71.586 19.76 71.1893 19.858 70.788 20.054C70.396 20.2407 70.0647 20.4647 69.794 20.726C69.5887 20.9313 69.3787 21.16 69.164 21.412C68.9587 21.664 68.7347 21.9487 68.492 22.266L66.994 21.146C67.6007 20.586 68.1233 20.0447 68.562 19.522C69.01 18.9993 69.388 18.4813 69.696 17.968C70.004 17.4547 70.256 16.9413 70.452 16.428C70.592 16.0547 70.704 15.6673 70.788 15.266C70.8813 14.8553 70.9373 14.4727 70.956 14.118L72.804 14.272ZM67.54 15.56C67.8947 15.616 68.3053 15.658 68.772 15.686C69.2387 15.714 69.6493 15.728 70.004 15.728C70.62 15.728 71.292 15.714 72.02 15.686C72.7573 15.658 73.504 15.6113 74.26 15.546C75.016 15.4713 75.7347 15.378 76.416 15.266L76.402 16.89C75.9073 16.9553 75.3707 17.016 74.792 17.072C74.2227 17.1187 73.6393 17.1607 73.042 17.198C72.454 17.226 71.8893 17.2493 71.348 17.268C70.8067 17.2773 70.326 17.282 69.906 17.282C69.7193 17.282 69.486 17.282 69.206 17.282C68.9353 17.2727 68.6553 17.2633 68.366 17.254C68.0767 17.2353 67.8013 17.2167 67.54 17.198V15.56ZM78.628 19.536C78.4787 19.5827 78.3013 19.6433 78.096 19.718C77.9 19.7833 77.6993 19.8533 77.494 19.928C77.298 19.9933 77.1207 20.0587 76.962 20.124C76.514 20.3013 75.982 20.516 75.366 20.768C74.7593 21.02 74.1247 21.314 73.462 21.65C73.042 21.874 72.6873 22.0933 72.398 22.308C72.1087 22.5227 71.8893 22.742 71.74 22.966C71.5907 23.1807 71.516 23.4187 71.516 23.68C71.516 23.876 71.558 24.0393 71.642 24.17C71.726 24.2913 71.852 24.3893 72.02 24.464C72.188 24.5387 72.398 24.59 72.65 24.618C72.902 24.646 73.2007 24.66 73.546 24.66C74.1433 24.66 74.8013 24.6273 75.52 24.562C76.2387 24.4873 76.906 24.3893 77.522 24.268L77.466 26.074C77.1673 26.1113 76.7893 26.1487 76.332 26.186C75.8747 26.2327 75.3987 26.2653 74.904 26.284C74.4187 26.3027 73.952 26.312 73.504 26.312C72.776 26.312 72.1227 26.242 71.544 26.102C70.9653 25.962 70.508 25.724 70.172 25.388C69.8453 25.0427 69.682 24.5713 69.682 23.974C69.682 23.4887 69.7893 23.05 70.004 22.658C70.228 22.266 70.522 21.9113 70.886 21.594C71.25 21.2767 71.6467 20.992 72.076 20.74C72.5147 20.4787 72.944 20.2407 73.364 20.026C73.7933 19.802 74.1807 19.6107 74.526 19.452C74.8713 19.2933 75.1933 19.1533 75.492 19.032C75.8 18.9013 76.094 18.7707 76.374 18.64C76.6447 18.5187 76.906 18.402 77.158 18.29C77.41 18.1687 77.6667 18.0427 77.928 17.912L78.628 19.536ZM88.162 18.556H89.842V26.76H88.162V18.556ZM84.466 20.32H93.468V21.832H84.466V20.32ZM90.164 20.992C90.4253 21.496 90.752 21.9953 91.144 22.49C91.5453 22.9847 91.9793 23.442 92.446 23.862C92.922 24.282 93.4027 24.632 93.888 24.912C93.7667 25.0053 93.6267 25.1313 93.468 25.29C93.3187 25.4487 93.174 25.612 93.034 25.78C92.9033 25.948 92.7913 26.102 92.698 26.242C92.2127 25.8967 91.732 25.4673 91.256 24.954C90.7893 24.4407 90.3507 23.8853 89.94 23.288C89.5387 22.6813 89.1933 22.0653 88.904 21.44L90.164 20.992ZM87.924 20.852L89.24 21.314C88.9413 21.9673 88.5773 22.6067 88.148 23.232C87.7187 23.848 87.2473 24.4127 86.734 24.926C86.2207 25.43 85.684 25.8593 85.124 26.214C85.04 26.074 84.928 25.92 84.788 25.752C84.6573 25.584 84.5173 25.4253 84.368 25.276C84.228 25.1173 84.0927 24.982 83.962 24.87C84.5033 24.59 85.026 24.24 85.53 23.82C86.034 23.3907 86.4913 22.924 86.902 22.42C87.322 21.9067 87.6627 21.384 87.924 20.852ZM86.986 15.7V17.576H91.102V15.7H86.986ZM85.404 14.216H92.796V19.046H85.404V14.216ZM83.57 13.642L85.124 14.146C84.816 14.9393 84.4473 15.7327 84.018 16.526C83.598 17.31 83.1407 18.0567 82.646 18.766C82.1607 19.466 81.6613 20.082 81.148 20.614C81.1013 20.474 81.0267 20.2967 80.924 20.082C80.8213 19.8673 80.7093 19.648 80.588 19.424C80.4667 19.2 80.3547 19.0227 80.252 18.892C80.6907 18.4627 81.1153 17.968 81.526 17.408C81.9367 16.848 82.3147 16.246 82.66 15.602C83.0147 14.958 83.318 14.3047 83.57 13.642ZM82.212 17.506L83.808 15.91V15.924V26.718H82.212V17.506ZM98.886 21.65H107.468V23.218H98.886V21.65ZM99.964 18.122H105.312V19.634H99.964V18.122ZM102.456 20.488H104.15V24.968C104.15 25.388 104.099 25.7147 103.996 25.948C103.903 26.1907 103.707 26.3727 103.408 26.494C103.109 26.6247 102.75 26.6993 102.33 26.718C101.919 26.746 101.429 26.76 100.86 26.76C100.832 26.508 100.771 26.2327 100.678 25.934C100.594 25.6353 100.501 25.3693 100.398 25.136C100.631 25.1453 100.869 25.1547 101.112 25.164C101.355 25.1733 101.569 25.178 101.756 25.178C101.952 25.1687 102.083 25.164 102.148 25.164C102.269 25.1547 102.349 25.136 102.386 25.108C102.433 25.08 102.456 25.0193 102.456 24.926V20.488ZM104.906 18.122H105.326L105.662 18.038L106.712 18.864C106.441 19.1813 106.133 19.5127 105.788 19.858C105.443 20.194 105.083 20.5207 104.71 20.838C104.346 21.146 103.987 21.4167 103.632 21.65C103.529 21.5007 103.385 21.328 103.198 21.132C103.021 20.936 102.867 20.7867 102.736 20.684C103.007 20.488 103.282 20.2593 103.562 19.998C103.842 19.7273 104.099 19.452 104.332 19.172C104.575 18.892 104.766 18.6493 104.906 18.444V18.122ZM94.77 15.434H107.258V17.044H94.77V15.434ZM99.152 13.6L100.944 14.02C100.599 15.1587 100.165 16.2787 99.642 17.38C99.1193 18.472 98.4847 19.494 97.738 20.446C97.0007 21.398 96.128 22.2193 95.12 22.91C95.064 22.7513 94.9847 22.574 94.882 22.378C94.7887 22.1727 94.686 21.9673 94.574 21.762C94.4713 21.5567 94.3733 21.3887 94.28 21.258C94.9147 20.838 95.4933 20.3387 96.016 19.76C96.5387 19.172 97.0007 18.542 97.402 17.87C97.8033 17.1887 98.1487 16.484 98.438 15.756C98.7367 15.028 98.9747 14.3093 99.152 13.6ZM96.366 19.438H98.06V26.732H96.366V19.438Z" fill="white"/>
<defs>
<linearGradient id="paint0_linear_13379_58766" x1="4.27232" y1="37.1619" x2="25.4709" y2="-28.2148" gradientUnits="userSpaceOnUse">
<stop stop-color="#A83DEB"/>
<stop offset="1" stop-color="#3083FD"/>
</linearGradient>
</defs>
</svg>
