<svg width="76" height="40" viewBox="0 0 76 40" fill="none" xmlns="http://www.w3.org/2000/svg">
<path d="M0 8C0 3.58172 3.58172 0 8 0H68C72.4183 0 76 3.58172 76 8V32C76 36.4183 72.4183 40 68 40H8C3.58172 40 0 36.4183 0 32V8Z" fill="url(#paint0_linear_13379_58760)"/>
<path d="M32.162 18.556H33.842V26.76H32.162V18.556ZM28.466 20.32H37.468V21.832H28.466V20.32ZM34.164 20.992C34.4253 21.496 34.752 21.9953 35.144 22.49C35.5453 22.9847 35.9793 23.442 36.446 23.862C36.922 24.282 37.4027 24.632 37.888 24.912C37.7667 25.0053 37.6267 25.1313 37.468 25.29C37.3187 25.4487 37.174 25.612 37.034 25.78C36.9033 25.948 36.7913 26.102 36.698 26.242C36.2127 25.8967 35.732 25.4673 35.256 24.954C34.7893 24.4407 34.3507 23.8853 33.94 23.288C33.5387 22.6813 33.1933 22.0653 32.904 21.44L34.164 20.992ZM31.924 20.852L33.24 21.314C32.9413 21.9673 32.5773 22.6067 32.148 23.232C31.7187 23.848 31.2473 24.4127 30.734 24.926C30.2207 25.43 29.684 25.8593 29.124 26.214C29.04 26.074 28.928 25.92 28.788 25.752C28.6573 25.584 28.5173 25.4253 28.368 25.276C28.228 25.1173 28.0927 24.982 27.962 24.87C28.5033 24.59 29.026 24.24 29.53 23.82C30.034 23.3907 30.4913 22.924 30.902 22.42C31.322 21.9067 31.6627 21.384 31.924 20.852ZM30.986 15.7V17.576H35.102V15.7H30.986ZM29.404 14.216H36.796V19.046H29.404V14.216ZM27.57 13.642L29.124 14.146C28.816 14.9393 28.4473 15.7327 28.018 16.526C27.598 17.31 27.1407 18.0567 26.646 18.766C26.1607 19.466 25.6613 20.082 25.148 20.614C25.1013 20.474 25.0267 20.2967 24.924 20.082C24.8213 19.8673 24.7093 19.648 24.588 19.424C24.4667 19.2 24.3547 19.0227 24.252 18.892C24.6907 18.4627 25.1153 17.968 25.526 17.408C25.9367 16.848 26.3147 16.246 26.66 15.602C27.0147 14.958 27.318 14.3047 27.57 13.642ZM26.212 17.506L27.808 15.91V15.924V26.718H26.212V17.506ZM42.886 21.65H51.468V23.218H42.886V21.65ZM43.964 18.122H49.312V19.634H43.964V18.122ZM46.456 20.488H48.15V24.968C48.15 25.388 48.0987 25.7147 47.996 25.948C47.9027 26.1907 47.7067 26.3727 47.408 26.494C47.1093 26.6247 46.75 26.6993 46.33 26.718C45.9193 26.746 45.4293 26.76 44.86 26.76C44.832 26.508 44.7713 26.2327 44.678 25.934C44.594 25.6353 44.5007 25.3693 44.398 25.136C44.6313 25.1453 44.8693 25.1547 45.112 25.164C45.3547 25.1733 45.5693 25.178 45.756 25.178C45.952 25.1687 46.0827 25.164 46.148 25.164C46.2693 25.1547 46.3487 25.136 46.386 25.108C46.4327 25.08 46.456 25.0193 46.456 24.926V20.488ZM48.906 18.122H49.326L49.662 18.038L50.712 18.864C50.4413 19.1813 50.1333 19.5127 49.788 19.858C49.4427 20.194 49.0833 20.5207 48.71 20.838C48.346 21.146 47.9867 21.4167 47.632 21.65C47.5293 21.5007 47.3847 21.328 47.198 21.132C47.0207 20.936 46.8667 20.7867 46.736 20.684C47.0067 20.488 47.282 20.2593 47.562 19.998C47.842 19.7273 48.0987 19.452 48.332 19.172C48.5747 18.892 48.766 18.6493 48.906 18.444V18.122ZM38.77 15.434H51.258V17.044H38.77V15.434ZM43.152 13.6L44.944 14.02C44.5987 15.1587 44.1647 16.2787 43.642 17.38C43.1193 18.472 42.4847 19.494 41.738 20.446C41.0007 21.398 40.128 22.2193 39.12 22.91C39.064 22.7513 38.9847 22.574 38.882 22.378C38.7887 22.1727 38.686 21.9673 38.574 21.762C38.4713 21.5567 38.3733 21.3887 38.28 21.258C38.9147 20.838 39.4933 20.3387 40.016 19.76C40.5387 19.172 41.0007 18.542 41.402 17.87C41.8033 17.1887 42.1487 16.484 42.438 15.756C42.7367 15.028 42.9747 14.3093 43.152 13.6ZM40.366 19.438H42.06V26.732H40.366V19.438Z" fill="white"/>
<defs>
<linearGradient id="paint0_linear_13379_58760" x1="2.45982" y1="37.1619" x2="33.3517" y2="-17.691" gradientUnits="userSpaceOnUse">
<stop stop-color="#A83DEB"/>
<stop offset="1" stop-color="#3083FD"/>
</linearGradient>
</defs>
</svg>
