<svg width="326" height="320" viewBox="0 0 326 320" fill="none" xmlns="http://www.w3.org/2000/svg">
<g clip-path="url(#clip0_13423_59086)">
<path d="M1 17C1 8.16345 8.16344 1 17 1H309C317.837 1 325 8.16344 325 17V303C325 311.837 317.837 319 309 319H17C8.16343 319 1 311.837 1 303V17Z" fill="white"/>
<rect width="324" height="178" transform="translate(1 1)" fill="#F5F7FC"/>
<path d="M17 1.5H309C317.56 1.5 324.5 8.43959 324.5 17V178.5H1.5V17C1.5 8.43959 8.43959 1.5 17 1.5Z" stroke="black" stroke-opacity="0.08"/>
<path d="M188.486 63.3086C190.629 63.3088 192.367 65.0056 192.367 67.0996V112.012C192.367 114.106 190.629 115.803 188.486 115.803H136.511C134.368 115.803 132.63 114.105 132.63 112.012V103.271C132.621 103.19 132.615 103.109 132.615 103.027C132.616 102.95 132.621 102.873 132.63 102.797V67.0996C132.63 65.0056 134.368 63.3087 136.511 63.3086H188.486ZM137.018 97.8496L151.338 83.8643L179.651 111.518H187.98V67.5938H137.018V97.8496ZM137.018 103.91V111.518H173.447L151.338 89.9238L137.018 103.91ZM174.486 78.0625C176.433 78.0625 178.012 79.6044 178.012 81.5059C178.012 83.4078 176.433 84.9502 174.486 84.9502C172.539 84.9501 170.961 83.4078 170.961 81.5059C170.961 79.6045 172.54 78.0626 174.486 78.0625Z" fill="black" fill-opacity="0.16"/>
<path d="M274 17C274 14.7909 275.791 13 278 13H309C311.209 13 313 14.7909 313 17V33C313 35.2091 311.209 37 309 37H278C275.791 37 274 35.2091 274 33V17Z" fill="#0F62FE"/>
<path d="M285.494 30.168C284.966 30.168 284.538 30.064 284.21 29.856C283.882 29.64 283.646 29.344 283.502 28.968C283.358 28.592 283.286 28.156 283.286 27.66V24.672H282.338V23.364L283.382 23.28L283.586 21.468H285.038V23.28H286.706V24.672H285.038V27.648C285.038 28.032 285.118 28.316 285.278 28.5C285.438 28.684 285.666 28.776 285.962 28.776C286.074 28.776 286.19 28.76 286.31 28.728C286.43 28.696 286.534 28.664 286.622 28.632L286.922 29.916C286.738 29.972 286.526 30.028 286.286 30.084C286.054 30.14 285.79 30.168 285.494 30.168ZM290.72 30.168C290.096 30.168 289.532 30.028 289.028 29.748C288.524 29.468 288.12 29.064 287.816 28.536C287.52 28.008 287.372 27.376 287.372 26.64C287.372 26.096 287.456 25.608 287.624 25.176C287.8 24.744 288.036 24.376 288.332 24.072C288.636 23.76 288.972 23.524 289.34 23.364C289.716 23.196 290.104 23.112 290.504 23.112C291.12 23.112 291.636 23.252 292.052 23.532C292.468 23.804 292.78 24.184 292.988 24.672C293.204 25.152 293.312 25.704 293.312 26.328C293.312 26.488 293.304 26.644 293.288 26.796C293.272 26.94 293.252 27.056 293.228 27.144H289.088C289.136 27.504 289.244 27.808 289.412 28.056C289.58 28.304 289.796 28.492 290.06 28.62C290.324 28.74 290.624 28.8 290.96 28.8C291.232 28.8 291.488 28.764 291.728 28.692C291.968 28.612 292.212 28.496 292.46 28.344L293.06 29.424C292.732 29.648 292.364 29.828 291.956 29.964C291.548 30.1 291.136 30.168 290.72 30.168ZM289.052 25.956H291.8C291.8 25.508 291.696 25.152 291.488 24.888C291.288 24.616 290.968 24.48 290.528 24.48C290.296 24.48 290.076 24.536 289.868 24.648C289.66 24.752 289.484 24.916 289.34 25.14C289.196 25.356 289.1 25.628 289.052 25.956ZM293.751 30L295.851 26.508L293.883 23.28H295.779L296.451 24.468C296.547 24.66 296.643 24.852 296.739 25.044C296.843 25.236 296.947 25.424 297.051 25.608H297.099C297.179 25.424 297.259 25.236 297.339 25.044C297.427 24.852 297.515 24.66 297.603 24.468L298.155 23.28H299.979L298.011 26.7L300.111 30H298.215L297.471 28.764C297.367 28.564 297.259 28.368 297.147 28.176C297.043 27.976 296.935 27.784 296.823 27.6H296.763C296.667 27.784 296.571 27.976 296.475 28.176C296.387 28.368 296.295 28.564 296.199 28.764L295.587 30H293.751ZM303.271 30.168C302.743 30.168 302.315 30.064 301.987 29.856C301.659 29.64 301.423 29.344 301.279 28.968C301.135 28.592 301.063 28.156 301.063 27.66V24.672H300.115V23.364L301.159 23.28L301.363 21.468H302.815V23.28H304.483V24.672H302.815V27.648C302.815 28.032 302.895 28.316 303.055 28.5C303.215 28.684 303.443 28.776 303.739 28.776C303.851 28.776 303.967 28.76 304.087 28.728C304.207 28.696 304.311 28.664 304.399 28.632L304.699 29.916C304.515 29.972 304.303 30.028 304.063 30.084C303.831 30.14 303.567 30.168 303.271 30.168Z" fill="white"/>
<path d="M14.112 206.252C13.32 206.252 12.678 206.096 12.186 205.784C11.694 205.46 11.34 205.016 11.124 204.452C10.908 203.888 10.8 203.234 10.8 202.49V198.008H9.378V196.046L10.944 195.92L11.25 193.202H13.428V195.92H15.93V198.008H13.428V202.472C13.428 203.048 13.548 203.474 13.788 203.75C14.028 204.026 14.37 204.164 14.814 204.164C14.982 204.164 15.156 204.14 15.336 204.092C15.516 204.044 15.672 203.996 15.804 203.948L16.254 205.874C15.978 205.958 15.66 206.042 15.3 206.126C14.952 206.21 14.556 206.252 14.112 206.252ZM21.9507 206.252C21.0147 206.252 20.1687 206.042 19.4127 205.622C18.6567 205.202 18.0507 204.596 17.5947 203.804C17.1507 203.012 16.9287 202.064 16.9287 200.96C16.9287 200.144 17.0547 199.412 17.3067 198.764C17.5707 198.116 17.9247 197.564 18.3687 197.108C18.8247 196.64 19.3287 196.286 19.8807 196.046C20.4447 195.794 21.0267 195.668 21.6267 195.668C22.5507 195.668 23.3247 195.878 23.9487 196.298C24.5727 196.706 25.0407 197.276 25.3527 198.008C25.6767 198.728 25.8387 199.556 25.8387 200.492C25.8387 200.732 25.8267 200.966 25.8027 201.194C25.7787 201.41 25.7487 201.584 25.7127 201.716H19.5027C19.5747 202.256 19.7367 202.712 19.9887 203.084C20.2407 203.456 20.5647 203.738 20.9607 203.93C21.3567 204.11 21.8067 204.2 22.3107 204.2C22.7187 204.2 23.1027 204.146 23.4627 204.038C23.8227 203.918 24.1887 203.744 24.5607 203.516L25.4607 205.136C24.9687 205.472 24.4167 205.742 23.8047 205.946C23.1927 206.15 22.5747 206.252 21.9507 206.252ZM19.4487 199.934H23.5707C23.5707 199.262 23.4147 198.728 23.1027 198.332C22.8027 197.924 22.3227 197.72 21.6627 197.72C21.3147 197.72 20.9847 197.804 20.6727 197.972C20.3607 198.128 20.0967 198.374 19.8807 198.71C19.6647 199.034 19.5207 199.442 19.4487 199.934ZM26.497 206L29.647 200.762L26.695 195.92H29.539L30.547 197.702C30.691 197.99 30.835 198.278 30.979 198.566C31.135 198.854 31.291 199.136 31.447 199.412H31.519C31.639 199.136 31.759 198.854 31.879 198.566C32.011 198.278 32.143 197.99 32.275 197.702L33.103 195.92H35.839L32.887 201.05L36.037 206H33.193L32.077 204.146C31.921 203.846 31.759 203.552 31.591 203.264C31.435 202.964 31.273 202.676 31.105 202.4H31.015C30.871 202.676 30.727 202.964 30.583 203.264C30.451 203.552 30.313 203.846 30.169 204.146L29.251 206H26.497ZM40.778 206.252C39.986 206.252 39.344 206.096 38.852 205.784C38.36 205.46 38.006 205.016 37.79 204.452C37.574 203.888 37.466 203.234 37.466 202.49V198.008H36.044V196.046L37.61 195.92L37.916 193.202H40.094V195.92H42.596V198.008H40.094V202.472C40.094 203.048 40.214 203.474 40.454 203.75C40.694 204.026 41.036 204.164 41.48 204.164C41.648 204.164 41.822 204.14 42.002 204.092C42.182 204.044 42.338 203.996 42.47 203.948L42.92 205.874C42.644 205.958 42.326 206.042 41.966 206.126C41.618 206.21 41.222 206.252 40.778 206.252Z" fill="#17181A"/>
<mask id="path-8-inside-1_13423_59086" fill="white">
<path d="M9 279C9 274.582 12.5817 271 17 271H309C313.418 271 317 274.582 317 279V303C317 307.418 313.418 311 309 311H17C12.5817 311 9 307.418 9 303V279Z"/>
</mask>
<path d="M17 271V272H309V271V270H17V271ZM317 279H316V303H317H318V279H317ZM309 311V310H17V311V312H309V311ZM9 303H10V279H9H8V303H9ZM17 311V310C13.134 310 10 306.866 10 303H9H8C8 307.971 12.0294 312 17 312V311ZM317 303H316C316 306.866 312.866 310 309 310V311V312C313.971 312 318 307.971 318 303H317ZM309 271V272C312.866 272 316 275.134 316 279H317H318C318 274.029 313.971 270 309 270V271ZM17 271V270C12.0294 270 8 274.029 8 279H9H10C10 275.134 13.134 272 17 272V271Z" fill="#2C75FE" mask="url(#path-8-inside-1_13423_59086)"/>
<path d="M153.66 296.696C153.044 296.696 152.544 296.575 152.162 296.332C151.779 296.08 151.504 295.735 151.336 295.296C151.168 294.857 151.084 294.349 151.084 293.77V290.284H149.978V288.758L151.196 288.66L151.434 286.546H153.128V288.66H155.074V290.284H153.128V293.756C153.128 294.204 153.221 294.535 153.408 294.75C153.594 294.965 153.86 295.072 154.206 295.072C154.336 295.072 154.472 295.053 154.612 295.016C154.752 294.979 154.873 294.941 154.976 294.904L155.326 296.402C155.111 296.467 154.864 296.533 154.584 296.598C154.313 296.663 154.005 296.696 153.66 296.696ZM159.756 296.696C159.028 296.696 158.37 296.533 157.782 296.206C157.194 295.879 156.723 295.408 156.368 294.792C156.023 294.176 155.85 293.439 155.85 292.58C155.85 291.945 155.948 291.376 156.144 290.872C156.35 290.368 156.625 289.939 156.97 289.584C157.325 289.22 157.717 288.945 158.146 288.758C158.585 288.562 159.038 288.464 159.504 288.464C160.223 288.464 160.825 288.627 161.31 288.954C161.796 289.271 162.16 289.715 162.402 290.284C162.654 290.844 162.78 291.488 162.78 292.216C162.78 292.403 162.771 292.585 162.752 292.762C162.734 292.93 162.71 293.065 162.682 293.168H157.852C157.908 293.588 158.034 293.943 158.23 294.232C158.426 294.521 158.678 294.741 158.986 294.89C159.294 295.03 159.644 295.1 160.036 295.1C160.354 295.1 160.652 295.058 160.932 294.974C161.212 294.881 161.497 294.745 161.786 294.568L162.486 295.828C162.104 296.089 161.674 296.299 161.198 296.458C160.722 296.617 160.242 296.696 159.756 296.696ZM157.81 291.782H161.016C161.016 291.259 160.895 290.844 160.652 290.536C160.419 290.219 160.046 290.06 159.532 290.06C159.262 290.06 159.005 290.125 158.762 290.256C158.52 290.377 158.314 290.569 158.146 290.83C157.978 291.082 157.866 291.399 157.81 291.782ZM163.292 296.5L165.742 292.426L163.446 288.66H165.658L166.442 290.046C166.554 290.27 166.666 290.494 166.778 290.718C166.9 290.942 167.021 291.161 167.142 291.376H167.198C167.292 291.161 167.385 290.942 167.478 290.718C167.581 290.494 167.684 290.27 167.786 290.046L168.43 288.66H170.558L168.262 292.65L170.712 296.5H168.5L167.632 295.058C167.511 294.825 167.385 294.596 167.254 294.372C167.133 294.139 167.007 293.915 166.876 293.7H166.806C166.694 293.915 166.582 294.139 166.47 294.372C166.368 294.596 166.26 294.825 166.148 295.058L165.434 296.5H163.292ZM174.4 296.696C173.784 296.696 173.284 296.575 172.902 296.332C172.519 296.08 172.244 295.735 172.076 295.296C171.908 294.857 171.824 294.349 171.824 293.77V290.284H170.718V288.758L171.936 288.66L172.174 286.546H173.868V288.66H175.814V290.284H173.868V293.756C173.868 294.204 173.961 294.535 174.148 294.75C174.334 294.965 174.6 295.072 174.946 295.072C175.076 295.072 175.212 295.053 175.352 295.016C175.492 294.979 175.613 294.941 175.716 294.904L176.066 296.402C175.851 296.467 175.604 296.533 175.324 296.598C175.053 296.663 174.745 296.696 174.4 296.696Z" fill="#0F62FE"/>
</g>
<path d="M309 0.5C318.113 0.5 325.5 7.8873 325.5 17V303C325.5 312.113 318.113 319.5 309 319.5H17C7.8873 319.5 0.5 312.113 0.5 303V17C0.500004 7.88731 7.8873 0.5 17 0.5H309Z" stroke="black" stroke-opacity="0.08"/>
<defs>
<clipPath id="clip0_13423_59086">
<path d="M1 17C1 8.16345 8.16344 1 17 1H309C317.837 1 325 8.16344 325 17V303C325 311.837 317.837 319 309 319H17C8.16343 319 1 311.837 1 303V17Z" fill="white"/>
</clipPath>
</defs>
</svg>
