<svg width="252" height="267" viewBox="0 0 252 267" fill="none" xmlns="http://www.w3.org/2000/svg">
<g clip-path="url(#clip0_13423_58896)">
<path d="M1 17C1 8.16344 8.16345 1 17 1H235C243.837 1 251 8.16344 251 17V250C251 258.837 243.837 266 235 266H17C8.16345 266 1 258.837 1 250V17Z" fill="white"/>
<rect width="250" height="178" transform="translate(1 1)" fill="#F5F7FC"/>
<path d="M17 1.5H235C243.56 1.5 250.5 8.43959 250.5 17V178.5H1.5V17C1.5 8.43959 8.43959 1.5 17 1.5Z" stroke="black" stroke-opacity="0.08"/>
<path d="M151.486 63.3086C153.629 63.3088 155.367 65.0056 155.367 67.0996V112.012C155.367 114.106 153.629 115.803 151.486 115.803H99.5108C97.3678 115.803 95.6299 114.105 95.6299 112.012V103.271C95.6208 103.19 95.6149 103.109 95.6153 103.027C95.6156 102.95 95.6211 102.873 95.6299 102.797V67.0996C95.6299 65.0056 97.3678 63.3087 99.5108 63.3086H151.486ZM100.018 97.8496L114.338 83.8643L142.651 111.518H150.98V67.5938H100.018V97.8496ZM100.018 103.91V111.518H136.447L114.338 89.9238L100.018 103.91ZM137.486 78.0625C139.433 78.0625 141.012 79.6044 141.012 81.5059C141.012 83.4078 139.433 84.9502 137.486 84.9502C135.539 84.9501 133.961 83.4078 133.961 81.5059C133.961 79.6045 135.54 78.0626 137.486 78.0625Z" fill="black" fill-opacity="0.16"/>
<path d="M200 17C200 14.7909 201.791 13 204 13H235C237.209 13 239 14.7909 239 17V33C239 35.2091 237.209 37 235 37H204C201.791 37 200 35.2091 200 33V17Z" fill="#0F62FE"/>
<path d="M211.494 30.168C210.966 30.168 210.538 30.064 210.21 29.856C209.882 29.64 209.646 29.344 209.502 28.968C209.358 28.592 209.286 28.156 209.286 27.66V24.672H208.338V23.364L209.382 23.28L209.586 21.468H211.038V23.28H212.706V24.672H211.038V27.648C211.038 28.032 211.118 28.316 211.278 28.5C211.438 28.684 211.666 28.776 211.962 28.776C212.074 28.776 212.19 28.76 212.31 28.728C212.43 28.696 212.534 28.664 212.622 28.632L212.922 29.916C212.738 29.972 212.526 30.028 212.286 30.084C212.054 30.14 211.79 30.168 211.494 30.168ZM216.72 30.168C216.096 30.168 215.532 30.028 215.028 29.748C214.524 29.468 214.12 29.064 213.816 28.536C213.52 28.008 213.372 27.376 213.372 26.64C213.372 26.096 213.456 25.608 213.624 25.176C213.8 24.744 214.036 24.376 214.332 24.072C214.636 23.76 214.972 23.524 215.34 23.364C215.716 23.196 216.104 23.112 216.504 23.112C217.12 23.112 217.636 23.252 218.052 23.532C218.468 23.804 218.78 24.184 218.988 24.672C219.204 25.152 219.312 25.704 219.312 26.328C219.312 26.488 219.304 26.644 219.288 26.796C219.272 26.94 219.252 27.056 219.228 27.144H215.088C215.136 27.504 215.244 27.808 215.412 28.056C215.58 28.304 215.796 28.492 216.06 28.62C216.324 28.74 216.624 28.8 216.96 28.8C217.232 28.8 217.488 28.764 217.728 28.692C217.968 28.612 218.212 28.496 218.46 28.344L219.06 29.424C218.732 29.648 218.364 29.828 217.956 29.964C217.548 30.1 217.136 30.168 216.72 30.168ZM215.052 25.956H217.8C217.8 25.508 217.696 25.152 217.488 24.888C217.288 24.616 216.968 24.48 216.528 24.48C216.296 24.48 216.076 24.536 215.868 24.648C215.66 24.752 215.484 24.916 215.34 25.14C215.196 25.356 215.1 25.628 215.052 25.956ZM219.751 30L221.851 26.508L219.883 23.28H221.779L222.451 24.468C222.547 24.66 222.643 24.852 222.739 25.044C222.843 25.236 222.947 25.424 223.051 25.608H223.099C223.179 25.424 223.259 25.236 223.339 25.044C223.427 24.852 223.515 24.66 223.603 24.468L224.155 23.28H225.979L224.011 26.7L226.111 30H224.215L223.471 28.764C223.367 28.564 223.259 28.368 223.147 28.176C223.043 27.976 222.935 27.784 222.823 27.6H222.763C222.667 27.784 222.571 27.976 222.475 28.176C222.387 28.368 222.295 28.564 222.199 28.764L221.587 30H219.751ZM229.271 30.168C228.743 30.168 228.315 30.064 227.987 29.856C227.659 29.64 227.423 29.344 227.279 28.968C227.135 28.592 227.063 28.156 227.063 27.66V24.672H226.115V23.364L227.159 23.28L227.363 21.468H228.815V23.28H230.483V24.672H228.815V27.648C228.815 28.032 228.895 28.316 229.055 28.5C229.215 28.684 229.443 28.776 229.739 28.776C229.851 28.776 229.967 28.76 230.087 28.728C230.207 28.696 230.311 28.664 230.399 28.632L230.699 29.916C230.515 29.972 230.303 30.028 230.063 30.084C229.831 30.14 229.567 30.168 229.271 30.168Z" fill="white"/>
<path d="M14.112 206.252C13.32 206.252 12.678 206.096 12.186 205.784C11.694 205.46 11.34 205.016 11.124 204.452C10.908 203.888 10.8 203.234 10.8 202.49V198.008H9.378V196.046L10.944 195.92L11.25 193.202H13.428V195.92H15.93V198.008H13.428V202.472C13.428 203.048 13.548 203.474 13.788 203.75C14.028 204.026 14.37 204.164 14.814 204.164C14.982 204.164 15.156 204.14 15.336 204.092C15.516 204.044 15.672 203.996 15.804 203.948L16.254 205.874C15.978 205.958 15.66 206.042 15.3 206.126C14.952 206.21 14.556 206.252 14.112 206.252ZM21.9507 206.252C21.0147 206.252 20.1687 206.042 19.4127 205.622C18.6567 205.202 18.0507 204.596 17.5947 203.804C17.1507 203.012 16.9287 202.064 16.9287 200.96C16.9287 200.144 17.0547 199.412 17.3067 198.764C17.5707 198.116 17.9247 197.564 18.3687 197.108C18.8247 196.64 19.3287 196.286 19.8807 196.046C20.4447 195.794 21.0267 195.668 21.6267 195.668C22.5507 195.668 23.3247 195.878 23.9487 196.298C24.5727 196.706 25.0407 197.276 25.3527 198.008C25.6767 198.728 25.8387 199.556 25.8387 200.492C25.8387 200.732 25.8267 200.966 25.8027 201.194C25.7787 201.41 25.7487 201.584 25.7127 201.716H19.5027C19.5747 202.256 19.7367 202.712 19.9887 203.084C20.2407 203.456 20.5647 203.738 20.9607 203.93C21.3567 204.11 21.8067 204.2 22.3107 204.2C22.7187 204.2 23.1027 204.146 23.4627 204.038C23.8227 203.918 24.1887 203.744 24.5607 203.516L25.4607 205.136C24.9687 205.472 24.4167 205.742 23.8047 205.946C23.1927 206.15 22.5747 206.252 21.9507 206.252ZM19.4487 199.934H23.5707C23.5707 199.262 23.4147 198.728 23.1027 198.332C22.8027 197.924 22.3227 197.72 21.6627 197.72C21.3147 197.72 20.9847 197.804 20.6727 197.972C20.3607 198.128 20.0967 198.374 19.8807 198.71C19.6647 199.034 19.5207 199.442 19.4487 199.934ZM26.497 206L29.647 200.762L26.695 195.92H29.539L30.547 197.702C30.691 197.99 30.835 198.278 30.979 198.566C31.135 198.854 31.291 199.136 31.447 199.412H31.519C31.639 199.136 31.759 198.854 31.879 198.566C32.011 198.278 32.143 197.99 32.275 197.702L33.103 195.92H35.839L32.887 201.05L36.037 206H33.193L32.077 204.146C31.921 203.846 31.759 203.552 31.591 203.264C31.435 202.964 31.273 202.676 31.105 202.4H31.015C30.871 202.676 30.727 202.964 30.583 203.264C30.451 203.552 30.313 203.846 30.169 204.146L29.251 206H26.497ZM40.778 206.252C39.986 206.252 39.344 206.096 38.852 205.784C38.36 205.46 38.006 205.016 37.79 204.452C37.574 203.888 37.466 203.234 37.466 202.49V198.008H36.044V196.046L37.61 195.92L37.916 193.202H40.094V195.92H42.596V198.008H40.094V202.472C40.094 203.048 40.214 203.474 40.454 203.75C40.694 204.026 41.036 204.164 41.48 204.164C41.648 204.164 41.822 204.14 42.002 204.092C42.182 204.044 42.338 203.996 42.47 203.948L42.92 205.874C42.644 205.958 42.326 206.042 41.966 206.126C41.618 206.21 41.222 206.252 40.778 206.252Z" fill="#17181A"/>
<mask id="path-8-inside-1_13423_58896" fill="white">
<path d="M9 226C9 221.582 12.5817 218 17 218H235C239.418 218 243 221.582 243 226V250C243 254.418 239.418 258 235 258H17C12.5817 258 9 254.418 9 250V226Z"/>
</mask>
<path d="M17 218V219H235V218V217H17V218ZM243 226H242V250H243H244V226H243ZM235 258V257H17V258V259H235V258ZM9 250H10V226H9H8V250H9ZM17 258V257C13.134 257 10 253.866 10 250H9H8C8 254.971 12.0294 259 17 259V258ZM243 250H242C242 253.866 238.866 257 235 257V258V259C239.971 259 244 254.971 244 250H243ZM235 218V219C238.866 219 242 222.134 242 226H243H244C244 221.029 239.971 217 235 217V218ZM17 218V217C12.0294 217 8 221.029 8 226H9H10C10 222.134 13.134 219 17 219V218Z" fill="#2C75FE" mask="url(#path-8-inside-1_13423_58896)"/>
<path d="M116.66 243.696C116.044 243.696 115.544 243.575 115.162 243.332C114.779 243.08 114.504 242.735 114.336 242.296C114.168 241.857 114.084 241.349 114.084 240.77V237.284H112.978V235.758L114.196 235.66L114.434 233.546H116.128V235.66H118.074V237.284H116.128V240.756C116.128 241.204 116.221 241.535 116.408 241.75C116.594 241.965 116.86 242.072 117.206 242.072C117.336 242.072 117.472 242.053 117.612 242.016C117.752 241.979 117.873 241.941 117.976 241.904L118.326 243.402C118.111 243.467 117.864 243.533 117.584 243.598C117.313 243.663 117.005 243.696 116.66 243.696ZM122.756 243.696C122.028 243.696 121.37 243.533 120.782 243.206C120.194 242.879 119.723 242.408 119.368 241.792C119.023 241.176 118.85 240.439 118.85 239.58C118.85 238.945 118.948 238.376 119.144 237.872C119.35 237.368 119.625 236.939 119.97 236.584C120.325 236.22 120.717 235.945 121.146 235.758C121.585 235.562 122.038 235.464 122.504 235.464C123.223 235.464 123.825 235.627 124.31 235.954C124.796 236.271 125.16 236.715 125.402 237.284C125.654 237.844 125.78 238.488 125.78 239.216C125.78 239.403 125.771 239.585 125.752 239.762C125.734 239.93 125.71 240.065 125.682 240.168H120.852C120.908 240.588 121.034 240.943 121.23 241.232C121.426 241.521 121.678 241.741 121.986 241.89C122.294 242.03 122.644 242.1 123.036 242.1C123.354 242.1 123.652 242.058 123.932 241.974C124.212 241.881 124.497 241.745 124.786 241.568L125.486 242.828C125.104 243.089 124.674 243.299 124.198 243.458C123.722 243.617 123.242 243.696 122.756 243.696ZM120.81 238.782H124.016C124.016 238.259 123.895 237.844 123.652 237.536C123.419 237.219 123.046 237.06 122.532 237.06C122.262 237.06 122.005 237.125 121.762 237.256C121.52 237.377 121.314 237.569 121.146 237.83C120.978 238.082 120.866 238.399 120.81 238.782ZM126.292 243.5L128.742 239.426L126.446 235.66H128.658L129.442 237.046C129.554 237.27 129.666 237.494 129.778 237.718C129.9 237.942 130.021 238.161 130.142 238.376H130.198C130.292 238.161 130.385 237.942 130.478 237.718C130.581 237.494 130.684 237.27 130.786 237.046L131.43 235.66H133.558L131.262 239.65L133.712 243.5H131.5L130.632 242.058C130.511 241.825 130.385 241.596 130.254 241.372C130.133 241.139 130.007 240.915 129.876 240.7H129.806C129.694 240.915 129.582 241.139 129.47 241.372C129.368 241.596 129.26 241.825 129.148 242.058L128.434 243.5H126.292ZM137.4 243.696C136.784 243.696 136.284 243.575 135.902 243.332C135.519 243.08 135.244 242.735 135.076 242.296C134.908 241.857 134.824 241.349 134.824 240.77V237.284H133.718V235.758L134.936 235.66L135.174 233.546H136.868V235.66H138.814V237.284H136.868V240.756C136.868 241.204 136.961 241.535 137.148 241.75C137.334 241.965 137.6 242.072 137.946 242.072C138.076 242.072 138.212 242.053 138.352 242.016C138.492 241.979 138.613 241.941 138.716 241.904L139.066 243.402C138.851 243.467 138.604 243.533 138.324 243.598C138.053 243.663 137.745 243.696 137.4 243.696Z" fill="#0F62FE"/>
</g>
<path d="M235 0.5C244.113 0.500001 251.5 7.8873 251.5 17V250C251.5 259.113 244.113 266.5 235 266.5H17C7.8873 266.5 0.5 259.113 0.5 250V17C0.5 7.8873 7.8873 0.5 17 0.5H235Z" stroke="black" stroke-opacity="0.08"/>
<defs>
<clipPath id="clip0_13423_58896">
<path d="M1 17C1 8.16344 8.16345 1 17 1H235C243.837 1 251 8.16344 251 17V250C251 258.837 243.837 266 235 266H17C8.16345 266 1 258.837 1 250V17Z" fill="white"/>
</clipPath>
</defs>
</svg>
