<svg width="326" height="402" viewBox="0 0 326 402" fill="none" xmlns="http://www.w3.org/2000/svg">
<g clip-path="url(#clip0_13417_58780)">
<path d="M1 17C1 8.16345 8.16344 1 17 1H309C317.837 1 325 8.16344 325 17V385C325 393.837 317.837 401 309 401H17C8.16343 401 1 393.837 1 385V17Z" fill="white"/>
<rect width="324" height="178" transform="translate(1 1)" fill="#F0F2F7"/>
<path d="M17 1.5H309C317.56 1.5 324.5 8.43959 324.5 17V178.5H1.5V17C1.5 8.43959 8.43959 1.5 17 1.5Z" stroke="black" stroke-opacity="0.08"/>
<path d="M188.986 63.7539C191.129 63.7541 192.867 65.4509 192.867 67.5449V112.457C192.867 114.551 191.129 116.248 188.986 116.248H137.011C134.868 116.248 133.13 114.55 133.13 112.457V103.716C133.121 103.635 133.115 103.554 133.115 103.473C133.116 103.396 133.121 103.319 133.13 103.242V67.5449C133.13 65.4509 134.868 63.7541 137.011 63.7539H188.986ZM137.518 98.2949L151.838 84.3096L180.151 111.963H188.48V68.0391H137.518V98.2949ZM137.518 104.355V111.963H173.947L151.838 90.3691L137.518 104.355ZM174.986 78.5078C176.933 78.5078 178.512 80.0497 178.512 81.9512C178.512 83.8531 176.933 85.3955 174.986 85.3955C173.039 85.3954 171.461 83.8531 171.461 81.9512C171.461 80.0498 173.04 78.5079 174.986 78.5078Z" fill="black" fill-opacity="0.16"/>
<path d="M13 17C13 14.7909 14.7909 13 17 13H48C50.2091 13 52 14.7909 52 17V33C52 35.2091 50.2091 37 48 37H17C14.7909 37 13 35.2091 13 33V17Z" fill="#0F62FE"/>
<path d="M24.4939 30.168C23.9659 30.168 23.5379 30.064 23.2099 29.856C22.8819 29.64 22.6459 29.344 22.5019 28.968C22.3579 28.592 22.2859 28.156 22.2859 27.66V24.672H21.3379V23.364L22.3819 23.28L22.5859 21.468H24.0379V23.28H25.7059V24.672H24.0379V27.648C24.0379 28.032 24.1179 28.316 24.2779 28.5C24.4379 28.684 24.6659 28.776 24.9619 28.776C25.0739 28.776 25.1899 28.76 25.3099 28.728C25.4299 28.696 25.5339 28.664 25.6219 28.632L25.9219 29.916C25.7379 29.972 25.5259 30.028 25.2859 30.084C25.0539 30.14 24.7899 30.168 24.4939 30.168ZM29.7198 30.168C29.0958 30.168 28.5318 30.028 28.0278 29.748C27.5238 29.468 27.1198 29.064 26.8158 28.536C26.5198 28.008 26.3718 27.376 26.3718 26.64C26.3718 26.096 26.4558 25.608 26.6238 25.176C26.7998 24.744 27.0358 24.376 27.3318 24.072C27.6358 23.76 27.9718 23.524 28.3398 23.364C28.7158 23.196 29.1038 23.112 29.5038 23.112C30.1198 23.112 30.6358 23.252 31.0518 23.532C31.4678 23.804 31.7798 24.184 31.9878 24.672C32.2038 25.152 32.3118 25.704 32.3118 26.328C32.3118 26.488 32.3038 26.644 32.2878 26.796C32.2718 26.94 32.2518 27.056 32.2278 27.144H28.0878C28.1358 27.504 28.2438 27.808 28.4118 28.056C28.5798 28.304 28.7958 28.492 29.0598 28.62C29.3238 28.74 29.6238 28.8 29.9598 28.8C30.2318 28.8 30.4878 28.764 30.7278 28.692C30.9678 28.612 31.2118 28.496 31.4598 28.344L32.0598 29.424C31.7318 29.648 31.3638 29.828 30.9558 29.964C30.5478 30.1 30.1358 30.168 29.7198 30.168ZM28.0518 25.956H30.7998C30.7998 25.508 30.6958 25.152 30.4878 24.888C30.2878 24.616 29.9678 24.48 29.5278 24.48C29.2958 24.48 29.0758 24.536 28.8678 24.648C28.6598 24.752 28.4838 24.916 28.3398 25.14C28.1958 25.356 28.0998 25.628 28.0518 25.956ZM32.7506 30L34.8506 26.508L32.8826 23.28H34.7786L35.4506 24.468C35.5466 24.66 35.6426 24.852 35.7386 25.044C35.8426 25.236 35.9466 25.424 36.0506 25.608H36.0986C36.1786 25.424 36.2586 25.236 36.3386 25.044C36.4266 24.852 36.5146 24.66 36.6026 24.468L37.1546 23.28H38.9786L37.0106 26.7L39.1106 30H37.2146L36.4706 28.764C36.3666 28.564 36.2586 28.368 36.1466 28.176C36.0426 27.976 35.9346 27.784 35.8226 27.6H35.7626C35.6666 27.784 35.5706 27.976 35.4746 28.176C35.3866 28.368 35.2946 28.564 35.1986 28.764L34.5866 30H32.7506ZM42.2713 30.168C41.7433 30.168 41.3153 30.064 40.9873 29.856C40.6593 29.64 40.4233 29.344 40.2793 28.968C40.1353 28.592 40.0633 28.156 40.0633 27.66V24.672H39.1153V23.364L40.1593 23.28L40.3633 21.468H41.8153V23.28H43.4833V24.672H41.8153V27.648C41.8153 28.032 41.8953 28.316 42.0553 28.5C42.2153 28.684 42.4433 28.776 42.7393 28.776C42.8513 28.776 42.9673 28.76 43.0873 28.728C43.2073 28.696 43.3113 28.664 43.3993 28.632L43.6993 29.916C43.5153 29.972 43.3033 30.028 43.0633 30.084C42.8313 30.14 42.5673 30.168 42.2713 30.168Z" fill="white"/>
<path d="M22.112 214.252C21.32 214.252 20.678 214.096 20.186 213.784C19.694 213.46 19.34 213.016 19.124 212.452C18.908 211.888 18.8 211.234 18.8 210.49V206.008H17.378V204.046L18.944 203.92L19.25 201.202H21.428V203.92H23.93V206.008H21.428V210.472C21.428 211.048 21.548 211.474 21.788 211.75C22.028 212.026 22.37 212.164 22.814 212.164C22.982 212.164 23.156 212.14 23.336 212.092C23.516 212.044 23.672 211.996 23.804 211.948L24.254 213.874C23.978 213.958 23.66 214.042 23.3 214.126C22.952 214.21 22.556 214.252 22.112 214.252ZM29.9507 214.252C29.0147 214.252 28.1687 214.042 27.4127 213.622C26.6567 213.202 26.0507 212.596 25.5947 211.804C25.1507 211.012 24.9287 210.064 24.9287 208.96C24.9287 208.144 25.0547 207.412 25.3067 206.764C25.5707 206.116 25.9247 205.564 26.3687 205.108C26.8247 204.64 27.3287 204.286 27.8807 204.046C28.4447 203.794 29.0267 203.668 29.6267 203.668C30.5507 203.668 31.3247 203.878 31.9487 204.298C32.5727 204.706 33.0407 205.276 33.3527 206.008C33.6767 206.728 33.8387 207.556 33.8387 208.492C33.8387 208.732 33.8267 208.966 33.8027 209.194C33.7787 209.41 33.7487 209.584 33.7127 209.716H27.5027C27.5747 210.256 27.7367 210.712 27.9887 211.084C28.2407 211.456 28.5647 211.738 28.9607 211.93C29.3567 212.11 29.8067 212.2 30.3107 212.2C30.7187 212.2 31.1027 212.146 31.4627 212.038C31.8227 211.918 32.1887 211.744 32.5607 211.516L33.4607 213.136C32.9687 213.472 32.4167 213.742 31.8047 213.946C31.1927 214.15 30.5747 214.252 29.9507 214.252ZM27.4487 207.934H31.5707C31.5707 207.262 31.4147 206.728 31.1027 206.332C30.8027 205.924 30.3227 205.72 29.6627 205.72C29.3147 205.72 28.9847 205.804 28.6727 205.972C28.3607 206.128 28.0967 206.374 27.8807 206.71C27.6647 207.034 27.5207 207.442 27.4487 207.934ZM34.497 214L37.647 208.762L34.695 203.92H37.539L38.547 205.702C38.691 205.99 38.835 206.278 38.979 206.566C39.135 206.854 39.291 207.136 39.447 207.412H39.519C39.639 207.136 39.759 206.854 39.879 206.566C40.011 206.278 40.143 205.99 40.275 205.702L41.103 203.92H43.839L40.887 209.05L44.037 214H41.193L40.077 212.146C39.921 211.846 39.759 211.552 39.591 211.264C39.435 210.964 39.273 210.676 39.105 210.4H39.015C38.871 210.676 38.727 210.964 38.583 211.264C38.451 211.552 38.313 211.846 38.169 212.146L37.251 214H34.497ZM48.778 214.252C47.986 214.252 47.344 214.096 46.852 213.784C46.36 213.46 46.006 213.016 45.79 212.452C45.574 211.888 45.466 211.234 45.466 210.49V206.008H44.044V204.046L45.61 203.92L45.916 201.202H48.094V203.92H50.596V206.008H48.094V210.472C48.094 211.048 48.214 211.474 48.454 211.75C48.694 212.026 49.036 212.164 49.48 212.164C49.648 212.164 49.822 212.14 50.002 212.092C50.182 212.044 50.338 211.996 50.47 211.948L50.92 213.874C50.644 213.958 50.326 214.042 49.966 214.126C49.618 214.21 49.222 214.252 48.778 214.252Z" fill="#17181A"/>
<path d="M25.001 228.334C28.4066 228.334 31.167 231.095 31.167 234.501C31.1668 237.906 28.4065 240.667 25.001 240.667C21.5953 240.667 18.8342 237.907 18.834 234.501C18.834 231.095 21.5952 228.334 25.001 228.334ZM25.001 229.2C22.0739 229.2 19.7002 231.574 19.7002 234.501C19.7004 237.428 22.074 239.801 25.001 239.801C27.9278 239.801 30.3006 237.428 30.3008 234.501C30.3008 231.574 27.9279 229.2 25.001 229.2ZM23.999 231.938L25.001 233.673L26.002 231.938H27.0029L25.751 234.106H26.8691V234.974H25.4336V235.708H26.8691V236.575H25.4336V237.476H24.5674V236.575H23.1318V235.708H24.5674V234.974H23.1318V234.106H24.25L22.998 231.938H23.999Z" fill="black" fill-opacity="0.56"/>
<path d="M35.238 240L38.234 234.694L35.434 229.738H36.862L38.262 232.356C38.3927 232.599 38.5187 232.837 38.64 233.07C38.7613 233.294 38.906 233.56 39.074 233.868H39.13C39.27 233.56 39.3913 233.294 39.494 233.07C39.606 232.837 39.7273 232.599 39.858 232.356L41.23 229.738H42.588L39.788 234.764L42.798 240H41.37L39.858 237.228C39.718 236.976 39.5733 236.715 39.424 236.444C39.284 236.173 39.13 235.879 38.962 235.562H38.906C38.7567 235.879 38.612 236.173 38.472 236.444C38.3413 236.715 38.2107 236.976 38.08 237.228L36.61 240H35.238ZM43.2634 240L46.2594 234.694L43.4594 229.738H44.8874L46.2874 232.356C46.4181 232.599 46.5441 232.837 46.6654 233.07C46.7867 233.294 46.9314 233.56 47.0994 233.868H47.1554C47.2954 233.56 47.4167 233.294 47.5194 233.07C47.6314 232.837 47.7527 232.599 47.8834 232.356L49.2554 229.738H50.6134L47.8134 234.764L50.8234 240H49.3954L47.8834 237.228C47.7434 236.976 47.5987 236.715 47.4494 236.444C47.3094 236.173 47.1554 235.879 46.9874 235.562H46.9314C46.7821 235.879 46.6374 236.173 46.4974 236.444C46.3667 236.715 46.2361 236.976 46.1054 237.228L44.6354 240H43.2634ZM51.9188 229.29H64.1968V230.326H51.9188V229.29ZM56.3008 233.182H62.1948V234.204H56.3008V233.182ZM61.8308 233.182H62.9088C62.9088 233.182 62.9088 233.215 62.9088 233.28C62.9088 233.345 62.9041 233.42 62.8948 233.504C62.8948 233.588 62.8948 233.653 62.8948 233.7C62.8388 234.839 62.7734 235.805 62.6988 236.598C62.6334 237.391 62.5634 238.054 62.4888 238.586C62.4141 239.109 62.3254 239.524 62.2228 239.832C62.1201 240.14 61.9988 240.364 61.8588 240.504C61.7001 240.681 61.5274 240.803 61.3408 240.868C61.1541 240.943 60.9254 240.989 60.6548 241.008C60.3934 241.036 60.0341 241.045 59.5768 241.036C59.1288 241.027 58.6621 241.008 58.1768 240.98C58.1674 240.821 58.1301 240.644 58.0648 240.448C57.9994 240.261 57.9154 240.093 57.8128 239.944C58.3354 239.991 58.8254 240.019 59.2828 240.028C59.7401 240.037 60.0621 240.042 60.2488 240.042C60.4168 240.051 60.5521 240.042 60.6548 240.014C60.7574 239.995 60.8461 239.949 60.9208 239.874C61.0794 239.734 61.2101 239.431 61.3128 238.964C61.4248 238.497 61.5181 237.811 61.5928 236.906C61.6768 236.001 61.7561 234.825 61.8308 233.378V233.182ZM55.7128 230.13H56.8048C56.7861 230.923 56.7441 231.74 56.6788 232.58C56.6228 233.411 56.5154 234.237 56.3568 235.058C56.1981 235.879 55.9601 236.668 55.6428 237.424C55.3254 238.171 54.8914 238.861 54.3408 239.496C53.7994 240.131 53.1181 240.681 52.2968 241.148C52.2128 241.008 52.0961 240.863 51.9468 240.714C51.7974 240.565 51.6574 240.439 51.5268 240.336C52.3201 239.916 52.9688 239.412 53.4728 238.824C53.9861 238.227 54.3874 237.578 54.6768 236.878C54.9754 236.178 55.1948 235.45 55.3348 234.694C55.4748 233.929 55.5681 233.159 55.6148 232.384C55.6614 231.609 55.6941 230.858 55.7128 230.13ZM66.3108 229.192H77.2868V230.228H67.3748V241.134H66.3108V229.192ZM76.8108 229.192H77.8748V239.72C77.8748 240.056 77.8281 240.313 77.7348 240.49C77.6414 240.677 77.4734 240.821 77.2308 240.924C76.9974 241.008 76.6754 241.059 76.2648 241.078C75.8634 241.097 75.3454 241.106 74.7108 241.106C74.7014 241.013 74.6734 240.901 74.6268 240.77C74.5801 240.639 74.5288 240.509 74.4728 240.378C74.4261 240.257 74.3748 240.149 74.3188 240.056C74.6361 240.065 74.9394 240.07 75.2288 240.07C75.5274 240.07 75.7841 240.07 75.9988 240.07C76.2134 240.07 76.3674 240.07 76.4608 240.07C76.5914 240.061 76.6801 240.033 76.7268 239.986C76.7828 239.93 76.8108 239.841 76.8108 239.72V229.192ZM66.8988 234.358H77.3148V235.394H66.8988V234.358ZM71.4908 229.71H72.5408V234.876H71.4908V229.71ZM82.0748 239.482H89.9568V240.49H82.0748V239.482ZM81.5848 235.142H90.5168V241.092H89.3968V236.15H82.6628V241.12H81.5848V235.142ZM84.3988 228.184L85.5608 228.59C85.2808 229.131 84.9681 229.696 84.6228 230.284C84.2868 230.863 83.9461 231.423 83.6008 231.964C83.2554 232.496 82.9241 232.967 82.6068 233.378L81.6828 232.986C82.0001 232.575 82.3268 232.095 82.6628 231.544C82.9988 230.984 83.3161 230.41 83.6148 229.822C83.9228 229.234 84.1841 228.688 84.3988 228.184ZM87.7728 230.452L88.5988 229.85C89.0748 230.223 89.5601 230.643 90.0548 231.11C90.5494 231.567 91.0021 232.034 91.4128 232.51C91.8328 232.977 92.1641 233.401 92.4068 233.784L91.4968 234.484C91.2728 234.101 90.9554 233.672 90.5448 233.196C90.1434 232.72 89.7001 232.244 89.2148 231.768C88.7294 231.283 88.2488 230.844 87.7728 230.452ZM79.9328 232.538C80.5954 232.519 81.3514 232.496 82.2008 232.468C83.0501 232.431 83.9554 232.393 84.9168 232.356C85.8874 232.319 86.8768 232.277 87.8848 232.23C88.9021 232.183 89.9054 232.141 90.8948 232.104L90.8388 233.112C89.8588 233.168 88.8694 233.219 87.8708 233.266C86.8814 233.303 85.9108 233.345 84.9588 233.392C84.0068 233.439 83.1108 233.481 82.2708 233.518C81.4308 233.546 80.6794 233.574 80.0168 233.602L79.9328 232.538ZM99.6588 235.072C99.2854 234.717 98.9214 234.437 98.5668 234.232C98.2214 234.027 97.7921 233.924 97.2788 233.924C96.7281 233.924 96.2194 234.097 95.7528 234.442C95.2954 234.778 94.9221 235.221 94.6328 235.772L93.6388 235.24C94.0774 234.437 94.6094 233.831 95.2348 233.42C95.8694 233 96.5554 232.79 97.2928 232.79C97.9274 232.79 98.4874 232.921 98.9728 233.182C99.4674 233.434 99.9574 233.803 100.443 234.288C100.816 234.643 101.18 234.923 101.535 235.128C101.889 235.333 102.319 235.436 102.823 235.436C103.373 235.436 103.877 235.268 104.335 234.932C104.801 234.587 105.179 234.139 105.469 233.588L106.463 234.12C106.024 234.923 105.487 235.534 104.853 235.954C104.227 236.365 103.546 236.57 102.809 236.57C102.183 236.57 101.623 236.444 101.129 236.192C100.634 235.931 100.144 235.557 99.6588 235.072Z" fill="black" fill-opacity="0.56"/>
<path d="M17 267C17 262.582 20.5817 259 25 259H301C305.418 259 309 262.582 309 267V321C309 325.418 305.418 329 301 329H25C20.5817 329 17 325.418 17 321V267Z" fill="#F0F2F7"/>
<path d="M36.499 290C37.329 290 37.999 290.67 37.999 291.5C37.999 292.33 37.327 293 36.499 293C35.671 293 34.999 292.33 34.999 291.5C34.999 290.67 35.669 290 36.499 290Z" fill="url(#paint0_linear_13417_58780)"/>
<path d="M47.999 290C48.829 290 49.499 290.67 49.499 291.5C49.499 292.33 48.827 293 47.999 293C47.171 293 46.499 292.33 46.499 291.5C46.499 290.67 47.169 290 47.999 290Z" fill="url(#paint1_linear_13417_58780)"/>
<path fill-rule="evenodd" clip-rule="evenodd" d="M34.9497 274C35.0497 274 35.1299 274.07 35.1499 274.16L35.6401 276.35H49.4297C50.0596 276.35 50.54 276.93 50.4102 277.55L48.4399 288.2C48.3399 288.67 47.9299 289 47.46 289H37.02C36.5501 289 36.1501 288.68 36.04 288.22L33.5098 276H31.1997C31.0894 276 31 275.91 31 275.8V274.2C31 274.09 31.0894 274 31.1997 274H34.9497ZM36.0898 278.35L37.8198 287H46.6401L48.21 278.35H36.0898Z" fill="url(#paint2_linear_13417_58780)"/>
<path d="M46.5391 279.923C46.2938 279.612 45.853 279.559 45.5469 279.806L42.0065 282.764C41.9355 282.822 41.8357 282.821 41.7658 282.761L39.9448 281.258C39.6468 281.006 39.2136 281.024 38.9349 281.299C38.7788 281.452 38.6992 281.66 38.6992 281.868C38.6992 282.044 38.756 282.221 38.8715 282.367L41.4366 285.403C41.728 285.725 42.22 285.734 42.5215 285.422L46.4899 280.909C46.7489 280.642 46.7702 280.215 46.5391 279.923Z" fill="url(#paint3_linear_13417_58780)"/>
<path d="M56.668 289.182C56.136 289.182 55.7113 289.079 55.394 288.874C55.0767 288.659 54.848 288.361 54.708 287.978C54.5773 287.595 54.512 287.152 54.512 286.648V282.434H53.378V281.468L54.582 281.398L54.722 279.256H55.786V281.398H57.858V282.434H55.786V286.69C55.786 287.147 55.87 287.507 56.038 287.768C56.2153 288.02 56.5233 288.146 56.962 288.146C57.102 288.146 57.2513 288.127 57.41 288.09C57.5687 288.043 57.7087 287.992 57.83 287.936L58.082 288.902C57.8673 288.977 57.6387 289.042 57.396 289.098C57.1533 289.154 56.9107 289.182 56.668 289.182ZM62.3993 289.182C61.7179 289.182 61.1019 289.023 60.5513 288.706C60.0006 288.389 59.5619 287.936 59.2353 287.348C58.9179 286.751 58.7593 286.037 58.7593 285.206C58.7593 284.581 58.8526 284.025 59.0393 283.54C59.2259 283.045 59.4779 282.625 59.7953 282.28C60.1219 281.925 60.4906 281.659 60.9013 281.482C61.3119 281.295 61.7319 281.202 62.1613 281.202C62.8146 281.202 63.3653 281.347 63.8133 281.636C64.2613 281.925 64.6019 282.341 64.8353 282.882C65.0779 283.414 65.1993 284.044 65.1993 284.772C65.1993 284.912 65.1946 285.043 65.1853 285.164C65.1759 285.285 65.1619 285.397 65.1433 285.5H60.0193C60.0473 286.041 60.1686 286.513 60.3833 286.914C60.6073 287.306 60.9013 287.614 61.2653 287.838C61.6293 288.053 62.0539 288.16 62.5393 288.16C62.9126 288.16 63.2486 288.109 63.5473 288.006C63.8553 287.894 64.1539 287.745 64.4433 287.558L64.8913 288.412C64.5646 288.627 64.1959 288.809 63.7853 288.958C63.3746 289.107 62.9126 289.182 62.3993 289.182ZM60.0053 284.59H64.0793C64.0793 283.825 63.9113 283.241 63.5753 282.84C63.2486 282.429 62.7866 282.224 62.1893 282.224C61.8346 282.224 61.4986 282.317 61.1813 282.504C60.8733 282.691 60.6119 282.957 60.3973 283.302C60.1919 283.647 60.0613 284.077 60.0053 284.59ZM65.8428 289L68.3488 285.038L66.0388 281.398H67.4248L68.4468 283.064C68.5588 283.279 68.6755 283.493 68.7968 283.708C68.9275 283.913 69.0581 284.123 69.1888 284.338H69.2588C69.3615 284.123 69.4688 283.913 69.5808 283.708C69.7021 283.493 69.8188 283.279 69.9308 283.064L70.8688 281.398H72.1988L69.8888 285.164L72.3948 289H70.9948L69.8748 287.222C69.7441 286.989 69.6088 286.76 69.4688 286.536C69.3381 286.303 69.1981 286.079 69.0488 285.864H68.9788C68.8575 286.079 68.7315 286.303 68.6008 286.536C68.4795 286.76 68.3488 286.989 68.2088 287.222L67.1868 289H65.8428ZM75.8633 289.182C75.3313 289.182 74.9066 289.079 74.5893 288.874C74.272 288.659 74.0433 288.361 73.9033 287.978C73.7726 287.595 73.7073 287.152 73.7073 286.648V282.434H72.5733V281.468L73.7773 281.398L73.9173 279.256H74.9813V281.398H77.0533V282.434H74.9813V286.69C74.9813 287.147 75.0653 287.507 75.2333 287.768C75.4106 288.02 75.7186 288.146 76.1573 288.146C76.2973 288.146 76.4466 288.127 76.6053 288.09C76.764 288.043 76.904 287.992 77.0253 287.936L77.2773 288.902C77.0626 288.977 76.834 289.042 76.5913 289.098C76.3486 289.154 76.106 289.182 75.8633 289.182Z" fill="black" fill-opacity="0.76"/>
<path d="M32.668 312.182C32.136 312.182 31.7113 312.079 31.394 311.874C31.0767 311.659 30.848 311.361 30.708 310.978C30.5773 310.595 30.512 310.152 30.512 309.648V305.434H29.378V304.468L30.582 304.398L30.722 302.256H31.786V304.398H33.858V305.434H31.786V309.69C31.786 310.147 31.87 310.507 32.038 310.768C32.2153 311.02 32.5233 311.146 32.962 311.146C33.102 311.146 33.2513 311.127 33.41 311.09C33.5687 311.043 33.7087 310.992 33.83 310.936L34.082 311.902C33.8673 311.977 33.6387 312.042 33.396 312.098C33.1533 312.154 32.9107 312.182 32.668 312.182ZM38.3993 312.182C37.7179 312.182 37.1019 312.023 36.5513 311.706C36.0006 311.389 35.5619 310.936 35.2353 310.348C34.9179 309.751 34.7593 309.037 34.7593 308.206C34.7593 307.581 34.8526 307.025 35.0393 306.54C35.2259 306.045 35.4779 305.625 35.7953 305.28C36.1219 304.925 36.4906 304.659 36.9013 304.482C37.3119 304.295 37.7319 304.202 38.1613 304.202C38.8146 304.202 39.3653 304.347 39.8133 304.636C40.2613 304.925 40.6019 305.341 40.8353 305.882C41.0779 306.414 41.1993 307.044 41.1993 307.772C41.1993 307.912 41.1946 308.043 41.1853 308.164C41.1759 308.285 41.1619 308.397 41.1433 308.5H36.0193C36.0473 309.041 36.1686 309.513 36.3833 309.914C36.6073 310.306 36.9013 310.614 37.2653 310.838C37.6293 311.053 38.0539 311.16 38.5393 311.16C38.9126 311.16 39.2486 311.109 39.5473 311.006C39.8553 310.894 40.1539 310.745 40.4433 310.558L40.8913 311.412C40.5646 311.627 40.1959 311.809 39.7853 311.958C39.3746 312.107 38.9126 312.182 38.3993 312.182ZM36.0053 307.59H40.0793C40.0793 306.825 39.9113 306.241 39.5753 305.84C39.2486 305.429 38.7866 305.224 38.1893 305.224C37.8346 305.224 37.4986 305.317 37.1813 305.504C36.8733 305.691 36.6119 305.957 36.3973 306.302C36.1919 306.647 36.0613 307.077 36.0053 307.59ZM41.8428 312L44.3488 308.038L42.0388 304.398H43.4248L44.4468 306.064C44.5588 306.279 44.6755 306.493 44.7968 306.708C44.9275 306.913 45.0581 307.123 45.1888 307.338H45.2588C45.3615 307.123 45.4688 306.913 45.5808 306.708C45.7021 306.493 45.8188 306.279 45.9308 306.064L46.8688 304.398H48.1988L45.8888 308.164L48.3948 312H46.9948L45.8748 310.222C45.7441 309.989 45.6088 309.76 45.4688 309.536C45.3381 309.303 45.1981 309.079 45.0488 308.864H44.9788C44.8575 309.079 44.7315 309.303 44.6008 309.536C44.4795 309.76 44.3488 309.989 44.2088 310.222L43.1868 312H41.8428ZM51.8633 312.182C51.3313 312.182 50.9066 312.079 50.5893 311.874C50.272 311.659 50.0433 311.361 49.9033 310.978C49.7726 310.595 49.7073 310.152 49.7073 309.648V305.434H48.5733V304.468L49.7773 304.398L49.9173 302.256H50.9813V304.398H53.0533V305.434H50.9813V309.69C50.9813 310.147 51.0653 310.507 51.2333 310.768C51.4106 311.02 51.7186 311.146 52.1573 311.146C52.2973 311.146 52.4466 311.127 52.6053 311.09C52.764 311.043 52.904 310.992 53.0253 310.936L53.2773 311.902C53.0626 311.977 52.834 312.042 52.5913 312.098C52.3486 312.154 52.106 312.182 51.8633 312.182ZM60.2715 312.182C59.7395 312.182 59.3148 312.079 58.9975 311.874C58.6802 311.659 58.4515 311.361 58.3115 310.978C58.1808 310.595 58.1155 310.152 58.1155 309.648V305.434H56.9815V304.468L58.1855 304.398L58.3255 302.256H59.3895V304.398H61.4615V305.434H59.3895V309.69C59.3895 310.147 59.4735 310.507 59.6415 310.768C59.8188 311.02 60.1268 311.146 60.5655 311.146C60.7055 311.146 60.8548 311.127 61.0135 311.09C61.1722 311.043 61.3122 310.992 61.4335 310.936L61.6855 311.902C61.4708 311.977 61.2422 312.042 60.9995 312.098C60.7568 312.154 60.5142 312.182 60.2715 312.182ZM66.0028 312.182C65.3214 312.182 64.7054 312.023 64.1548 311.706C63.6041 311.389 63.1654 310.936 62.8388 310.348C62.5214 309.751 62.3628 309.037 62.3628 308.206C62.3628 307.581 62.4561 307.025 62.6428 306.54C62.8294 306.045 63.0814 305.625 63.3988 305.28C63.7254 304.925 64.0941 304.659 64.5048 304.482C64.9154 304.295 65.3354 304.202 65.7648 304.202C66.4181 304.202 66.9688 304.347 67.4168 304.636C67.8648 304.925 68.2054 305.341 68.4388 305.882C68.6814 306.414 68.8028 307.044 68.8028 307.772C68.8028 307.912 68.7981 308.043 68.7888 308.164C68.7794 308.285 68.7654 308.397 68.7468 308.5H63.6228C63.6508 309.041 63.7721 309.513 63.9868 309.914C64.2108 310.306 64.5048 310.614 64.8688 310.838C65.2328 311.053 65.6574 311.16 66.1428 311.16C66.5161 311.16 66.8521 311.109 67.1508 311.006C67.4588 310.894 67.7574 310.745 68.0468 310.558L68.4948 311.412C68.1681 311.627 67.7994 311.809 67.3888 311.958C66.9781 312.107 66.5161 312.182 66.0028 312.182ZM63.6088 307.59H67.6828C67.6828 306.825 67.5148 306.241 67.1788 305.84C66.8521 305.429 66.3901 305.224 65.7928 305.224C65.4381 305.224 65.1021 305.317 64.7848 305.504C64.4768 305.691 64.2154 305.957 64.0008 306.302C63.7954 306.647 63.6648 307.077 63.6088 307.59ZM69.4463 312L71.9523 308.038L69.6423 304.398H71.0283L72.0503 306.064C72.1623 306.279 72.279 306.493 72.4003 306.708C72.531 306.913 72.6617 307.123 72.7923 307.338H72.8623C72.965 307.123 73.0723 306.913 73.1843 306.708C73.3057 306.493 73.4223 306.279 73.5343 306.064L74.4723 304.398H75.8023L73.4923 308.164L75.9983 312H74.5983L73.4783 310.222C73.3477 309.989 73.2123 309.76 73.0723 309.536C72.9417 309.303 72.8017 309.079 72.6523 308.864H72.5823C72.461 309.079 72.335 309.303 72.2043 309.536C72.083 309.76 71.9523 309.989 71.8123 310.222L70.7903 312H69.4463ZM79.4668 312.182C78.9348 312.182 78.5102 312.079 78.1928 311.874C77.8755 311.659 77.6468 311.361 77.5068 310.978C77.3762 310.595 77.3108 310.152 77.3108 309.648V305.434H76.1768V304.468L77.3808 304.398L77.5208 302.256H78.5848V304.398H80.6568V305.434H78.5848V309.69C78.5848 310.147 78.6688 310.507 78.8368 310.768C79.0142 311.02 79.3222 311.146 79.7608 311.146C79.9008 311.146 80.0502 311.127 80.2088 311.09C80.3675 311.043 80.5075 310.992 80.6288 310.936L80.8808 311.902C80.6662 311.977 80.4375 312.042 80.1948 312.098C79.9522 312.154 79.7095 312.182 79.4668 312.182ZM87.875 312.182C87.343 312.182 86.9184 312.079 86.601 311.874C86.2837 311.659 86.055 311.361 85.915 310.978C85.7844 310.595 85.719 310.152 85.719 309.648V305.434H84.585V304.468L85.789 304.398L85.929 302.256H86.993V304.398H89.065V305.434H86.993V309.69C86.993 310.147 87.077 310.507 87.245 310.768C87.4224 311.02 87.7304 311.146 88.169 311.146C88.309 311.146 88.4584 311.127 88.617 311.09C88.7757 311.043 88.9157 310.992 89.037 310.936L89.289 311.902C89.0744 311.977 88.8457 312.042 88.603 312.098C88.3604 312.154 88.1177 312.182 87.875 312.182ZM93.6063 312.182C92.9249 312.182 92.3089 312.023 91.7583 311.706C91.2076 311.389 90.7689 310.936 90.4423 310.348C90.1249 309.751 89.9663 309.037 89.9663 308.206C89.9663 307.581 90.0596 307.025 90.2463 306.54C90.4329 306.045 90.6849 305.625 91.0023 305.28C91.3289 304.925 91.6976 304.659 92.1083 304.482C92.5189 304.295 92.9389 304.202 93.3683 304.202C94.0216 304.202 94.5723 304.347 95.0203 304.636C95.4683 304.925 95.8089 305.341 96.0423 305.882C96.2849 306.414 96.4063 307.044 96.4063 307.772C96.4063 307.912 96.4016 308.043 96.3923 308.164C96.3829 308.285 96.3689 308.397 96.3503 308.5H91.2263C91.2543 309.041 91.3756 309.513 91.5903 309.914C91.8143 310.306 92.1083 310.614 92.4723 310.838C92.8363 311.053 93.2609 311.16 93.7463 311.16C94.1196 311.16 94.4556 311.109 94.7543 311.006C95.0623 310.894 95.3609 310.745 95.6503 310.558L96.0983 311.412C95.7716 311.627 95.4029 311.809 94.9923 311.958C94.5816 312.107 94.1196 312.182 93.6063 312.182ZM91.2123 307.59H95.2863C95.2863 306.825 95.1183 306.241 94.7823 305.84C94.4556 305.429 93.9936 305.224 93.3963 305.224C93.0416 305.224 92.7056 305.317 92.3883 305.504C92.0803 305.691 91.8189 305.957 91.6043 306.302C91.3989 306.647 91.2683 307.077 91.2123 307.59ZM97.0498 312L99.5558 308.038L97.2458 304.398H98.6318L99.6538 306.064C99.7658 306.279 99.8825 306.493 100.004 306.708C100.135 306.913 100.265 307.123 100.396 307.338H100.466C100.569 307.123 100.676 306.913 100.788 306.708C100.909 306.493 101.026 306.279 101.138 306.064L102.076 304.398H103.406L101.096 308.164L103.602 312H102.202L101.082 310.222C100.951 309.989 100.816 309.76 100.676 309.536C100.545 309.303 100.405 309.079 100.256 308.864H100.186C100.065 309.079 99.9385 309.303 99.8078 309.536C99.6865 309.76 99.5558 309.989 99.4158 310.222L98.3938 312H97.0498ZM107.07 312.182C106.538 312.182 106.114 312.079 105.796 311.874C105.479 311.659 105.25 311.361 105.11 310.978C104.98 310.595 104.914 310.152 104.914 309.648V305.434H103.78V304.468L104.984 304.398L105.124 302.256H106.188V304.398H108.26V305.434H106.188V309.69C106.188 310.147 106.272 310.507 106.44 310.768C106.618 311.02 106.926 311.146 107.364 311.146C107.504 311.146 107.654 311.127 107.812 311.09C107.971 311.043 108.111 310.992 108.232 310.936L108.484 311.902C108.27 311.977 108.041 312.042 107.798 312.098C107.556 312.154 107.313 312.182 107.07 312.182Z" fill="black" fill-opacity="0.76"/>
<mask id="path-15-inside-1_13417_58780" fill="white">
<path d="M17 353C17 348.582 20.5817 345 25 345H301C305.418 345 309 348.582 309 353V377C309 381.418 305.418 385 301 385H25C20.5817 385 17 381.418 17 377V353Z"/>
</mask>
<path d="M25 345V346H301V345V344H25V345ZM309 353H308V377H309H310V353H309ZM301 385V384H25V385V386H301V385ZM17 377H18V353H17H16V377H17ZM25 385V384C21.134 384 18 380.866 18 377H17H16C16 381.971 20.0294 386 25 386V385ZM309 377H308C308 380.866 304.866 384 301 384V385V386C305.971 386 310 381.971 310 377H309ZM301 345V346C304.866 346 308 349.134 308 353H309H310C310 348.029 305.971 344 301 344V345ZM25 345V344C20.0294 344 16 348.029 16 353H17H18C18 349.134 21.134 346 25 346V345Z" fill="#2C75FE" mask="url(#path-15-inside-1_13417_58780)"/>
<path d="M153.66 370.696C153.044 370.696 152.544 370.575 152.162 370.332C151.779 370.08 151.504 369.735 151.336 369.296C151.168 368.857 151.084 368.349 151.084 367.77V364.284H149.978V362.758L151.196 362.66L151.434 360.546H153.128V362.66H155.074V364.284H153.128V367.756C153.128 368.204 153.221 368.535 153.408 368.75C153.594 368.965 153.86 369.072 154.206 369.072C154.336 369.072 154.472 369.053 154.612 369.016C154.752 368.979 154.873 368.941 154.976 368.904L155.326 370.402C155.111 370.467 154.864 370.533 154.584 370.598C154.313 370.663 154.005 370.696 153.66 370.696ZM159.756 370.696C159.028 370.696 158.37 370.533 157.782 370.206C157.194 369.879 156.723 369.408 156.368 368.792C156.023 368.176 155.85 367.439 155.85 366.58C155.85 365.945 155.948 365.376 156.144 364.872C156.35 364.368 156.625 363.939 156.97 363.584C157.325 363.22 157.717 362.945 158.146 362.758C158.585 362.562 159.038 362.464 159.504 362.464C160.223 362.464 160.825 362.627 161.31 362.954C161.796 363.271 162.16 363.715 162.402 364.284C162.654 364.844 162.78 365.488 162.78 366.216C162.78 366.403 162.771 366.585 162.752 366.762C162.734 366.93 162.71 367.065 162.682 367.168H157.852C157.908 367.588 158.034 367.943 158.23 368.232C158.426 368.521 158.678 368.741 158.986 368.89C159.294 369.03 159.644 369.1 160.036 369.1C160.354 369.1 160.652 369.058 160.932 368.974C161.212 368.881 161.497 368.745 161.786 368.568L162.486 369.828C162.104 370.089 161.674 370.299 161.198 370.458C160.722 370.617 160.242 370.696 159.756 370.696ZM157.81 365.782H161.016C161.016 365.259 160.895 364.844 160.652 364.536C160.419 364.219 160.046 364.06 159.532 364.06C159.262 364.06 159.005 364.125 158.762 364.256C158.52 364.377 158.314 364.569 158.146 364.83C157.978 365.082 157.866 365.399 157.81 365.782ZM163.292 370.5L165.742 366.426L163.446 362.66H165.658L166.442 364.046C166.554 364.27 166.666 364.494 166.778 364.718C166.9 364.942 167.021 365.161 167.142 365.376H167.198C167.292 365.161 167.385 364.942 167.478 364.718C167.581 364.494 167.684 364.27 167.786 364.046L168.43 362.66H170.558L168.262 366.65L170.712 370.5H168.5L167.632 369.058C167.511 368.825 167.385 368.596 167.254 368.372C167.133 368.139 167.007 367.915 166.876 367.7H166.806C166.694 367.915 166.582 368.139 166.47 368.372C166.368 368.596 166.26 368.825 166.148 369.058L165.434 370.5H163.292ZM174.4 370.696C173.784 370.696 173.284 370.575 172.902 370.332C172.519 370.08 172.244 369.735 172.076 369.296C171.908 368.857 171.824 368.349 171.824 367.77V364.284H170.718V362.758L171.936 362.66L172.174 360.546H173.868V362.66H175.814V364.284H173.868V367.756C173.868 368.204 173.961 368.535 174.148 368.75C174.334 368.965 174.6 369.072 174.946 369.072C175.076 369.072 175.212 369.053 175.352 369.016C175.492 368.979 175.613 368.941 175.716 368.904L176.066 370.402C175.851 370.467 175.604 370.533 175.324 370.598C175.053 370.663 174.745 370.696 174.4 370.696Z" fill="#0F62FE"/>
</g>
<path d="M309 0.5C318.113 0.5 325.5 7.8873 325.5 17V385C325.5 394.113 318.113 401.5 309 401.5H17C7.8873 401.5 0.5 394.113 0.5 385V17C0.500005 7.88731 7.8873 0.5 17 0.5H309Z" stroke="black" stroke-opacity="0.08"/>
<defs>
<linearGradient id="paint0_linear_13417_58780" x1="32.2954" y1="293.389" x2="49.8345" y2="274.559" gradientUnits="userSpaceOnUse">
<stop stop-color="#FF598E"/>
<stop offset="0.3" stop-color="#A83DEB"/>
<stop offset="0.7" stop-color="#3083FD"/>
<stop offset="1" stop-color="#8AD9FE"/>
</linearGradient>
<linearGradient id="paint1_linear_13417_58780" x1="32.2954" y1="293.389" x2="49.8345" y2="274.559" gradientUnits="userSpaceOnUse">
<stop stop-color="#FF598E"/>
<stop offset="0.3" stop-color="#A83DEB"/>
<stop offset="0.7" stop-color="#3083FD"/>
<stop offset="1" stop-color="#8AD9FE"/>
</linearGradient>
<linearGradient id="paint2_linear_13417_58780" x1="32.2954" y1="293.389" x2="49.8345" y2="274.559" gradientUnits="userSpaceOnUse">
<stop stop-color="#FF598E"/>
<stop offset="0.3" stop-color="#A83DEB"/>
<stop offset="0.7" stop-color="#3083FD"/>
<stop offset="1" stop-color="#8AD9FE"/>
</linearGradient>
<linearGradient id="paint3_linear_13417_58780" x1="45.6226" y1="278.516" x2="38.9566" y2="291.903" gradientUnits="userSpaceOnUse">
<stop stop-color="#3083FD"/>
<stop offset="1" stop-color="#A83DEB"/>
</linearGradient>
<clipPath id="clip0_13417_58780">
<path d="M1 17C1 8.16345 8.16344 1 17 1H309C317.837 1 325 8.16344 325 17V385C325 393.837 317.837 401 309 401H17C8.16343 401 1 393.837 1 385V17Z" fill="white"/>
</clipPath>
</defs>
</svg>
